<svg width="24" height="25" viewBox="0 0 24 25" fill="none" xmlns="http://www.w3.org/2000/svg">
<path d="M19.875 21.6951C17.8417 21.6951 15.8208 21.1951 13.8125 20.1951C11.8042 19.1951 10 17.8951 8.4 16.2951C6.8 14.6951 5.5 12.8909 4.5 10.8826C3.5 8.87424 3 6.8534 3 4.82007C3 4.5034 3.10833 4.23674 3.325 4.02007C3.54167 3.8034 3.80833 3.69507 4.125 3.69507H7.625C7.85833 3.69507 8.0625 3.77423 8.2375 3.93257C8.4125 4.0909 8.525 4.3034 8.575 4.57007L9.25 7.72007C9.28333 7.9534 9.27917 8.1659 9.2375 8.35757C9.19583 8.54923 9.10833 8.71173 8.975 8.84507L6.475 11.3701C7.40833 12.9201 8.45417 14.2701 9.6125 15.4201C10.7708 16.5701 12.0833 17.5451 13.55 18.3451L15.925 15.8951C16.0917 15.7117 16.2833 15.5826 16.5 15.5076C16.7167 15.4326 16.9333 15.4201 17.15 15.4701L20.125 16.1201C20.375 16.1701 20.5833 16.2951 20.75 16.4951C20.9167 16.6951 21 16.9284 21 17.1951V20.5701C21 20.8867 20.8917 21.1534 20.675 21.3701C20.4583 21.5867 20.1917 21.6951 19.875 21.6951ZM5.725 9.99507L7.75 7.94507L7.175 5.19507H4.5C4.5 5.84507 4.6 6.55757 4.8 7.33257C5 8.10757 5.30833 8.99507 5.725 9.99507ZM14.95 19.0701C15.6333 19.3867 16.375 19.6451 17.175 19.8451C17.975 20.0451 18.75 20.1617 19.5 20.1951V17.5201L16.925 16.9951L14.95 19.0701Z" fill="#444746"/>
</svg>
